# xmcd
# 
# Track frame offsets:
#     150
#     12905
#     24455
#     34485
#     51672
#     64197
#     91780
#     104317
#     117662
#     129170
#     141055
#     153090
#     164980
#     179042
#     190575
#     201835
# 
# Disc length: 2889
# 
# Revision: 15
# Processed by: cddbd v1.5.2PL0 Copyright (c) Steve Scherf et al.
# Submitted via: fre:ac v1.0.27
# 
DISCID=e50b4710
DTITLE=Various Artist - Country and Western CD2
DYEAR=1998
DGENRE=Country
TTITLE0=Jonny Cash - Folsom Prison Blues
TTITLE1=Jim Corce - Workin' At The Car Wash Blues
TTITLE2=Don Gibson - Lonesome Number One
TTITLE3=Bobby Bare - Sylvia's Mother
TTITLE4=Wanda Jackson - Crazy
TTITLE5=John Denver - A Little Further North
TTITLE6=George Kent - Hello, I'm A Jukebox
TTITLE7=Linda Manning - Its only for a Moment
TTITLE8=Kitty Wells - Password
TTITLE9=George Kent - I Always Did Like Leavenworth
TTITLE10=Ferlin Husky - I Could Sing All Night
TTITLE11=Billy Grammer - Papa And Mama
TTITLE12=Barbara Perry - Why Can't Women Have A Good Beer (Drinking Song)
TTITLE13=Dave Dudley - My Home Town Made A Change
TTITLE14=Conway Twitty - Hello Darlin'
TTITLE15=David Price - Love Him Tender, Sweet Jesus
EXTD=
EXTT0=
EXTT1=
EXTT2=
EXTT3=
EXTT4=
EXTT5=
EXTT6=
EXTT7=
EXTT8=
EXTT9=
EXTT10=
EXTT11=
EXTT12=
EXTT13=
EXTT14=
EXTT15=
PLAYORDER=
